{"title":"Snow White and the Huntsmen v2 2012 TS XviD-26k","uid":7343558,"size":1469223095,"categoryP":"video","categoryS":"movies","magnet":"?xt=urn:btih:3c9bc41cf56806161709a59485510205dd9d6dd8&amp;dn=Snow+White+and+the+Huntsmen+v2+2012+TS+XviD-26k&amp;tr=udp%3A%2F%2Ftracker.openbittorrent.com%3A80&amp;tr=udp%3A%2F%2Fopen.demonii.com%3A1337&amp;tr=udp%3A%2F%2Ftracker.coppersurfer.tk%3A6969&amp;tr=udp%3A%2F%2Fexodus.desync.com%3A6969","seeders":1,"leechers":0,"uploader":"cad40","files":6,"time":1339337611,"description":"now White and the Huntsmen 2012 TS XviD-26k\n\n &lt;a href=&quot;\nhttp://www.imdb.com/title/tt1735898/&quot; rel=&quot;nofollow&quot; target=&quot;_NEW&quot;&gt;\nhttp://www.imdb.com/title/tt1735898/&lt;/a&gt;\n\n\nPlot:\nIn a twist to the fairy tale, the Huntsman ordered to take Snow White into the woods \nto be killed winds up becoming her protector and mentor in a quest to vanquish the \nEvil Queen.\n\n\nSources - VIDEO: Snow.White.and.the.Huntsman.TS.LD.German.iNTERNAL.XViD-AOE \n\n....Thanks :P\nAUDIO: ADTRG ...Thanks :P\n\n\n\nFormat : AVI\nFormat/Info : Audio Video Interleave\nFile size : 1.37 GiB\nDuration : 1h 57mn\nOverall bit rate : 1 666 Kbps\nWriting library : VirtualDub build 32839/release\n\nVideo\nID : 0\nFormat : MPEG-4 Visual\nFormat profile : Advanced Simple@L5\nFormat settings, BVOP : 2\nFormat settings, QPel : No\nFormat settings, GMC : No warppoints\nFormat settings, Matrix : Default (H.263)\nMuxing mode : Packed bitstream\nCodec ID : XVID\nCodec ID/Hint : XviD\nDuration : 1h 57mn\nBit rate : 1 526 Kbps\nWidth : 720 pixels\nHeight : 320 pixels\nDisplay aspect ratio : 2.25:1\nFrame rate : 29.970 fps\nColor space : YUV\nChroma subsampling : 4:2:0\nBit depth : 8 bits\nScan type : Progressive\nCompression mode : Lossy\nBits/(Pixel*Frame) : 0.221\nStream size : 1.25 GiB (92%)\nWriting library : XviD 1.2.1 (UTC 2008-12-04)\n\nAudio\nID : 1\nFormat : MPEG Audio\nCodec ID : 55\nCodec ID/Hint : MP3\nDuration : 1h 57mn\nBit rate : 128 Kbps\nChannel(s) : 2 channels\nSampling rate : 44.1 KHz\nCompression mode : Lossy\nStream size : 107 MiB (8%)\nAlignment : Split accross interleaves\nInterleave, duration : 33 ms (1.00 video frame)\nInterleave, preload duration : 500 ms\n\n\n\n\nNotes -\nSource is very nice other than a scrolling, pulsing flicker which i reduced as much \n\nas possible without \nlosing video quality.. then it was onto the slight RGB adjustment, brightness and \n\ncontrast then sharpened..\nthen was onto syncing up ADTRG's very nice LiNE to our encode... had to make a few \n\ncuts due to them\nnot removing dupe frames..... will do until R5 or better comes along...... enjoy :P\n\nEnjoy!!","torrent":{"xt":"urn:btih:3c9bc41cf56806161709a59485510205dd9d6dd8","amp;dn":"Snow+White+and+the+Huntsmen+v2+2012+TS+XviD-26k","amp;tr":["udp%3A%2F%2Ftracker.openbittorrent.com%3A80","udp%3A%2F%2Fopen.demonii.com%3A1337","udp%3A%2F%2Ftracker.coppersurfer.tk%3A6969","udp%3A%2F%2Fexodus.desync.com%3A6969"],"infoHash":"3c9bc41cf56806161709a59485510205dd9d6dd8","infoHashBuffer":{"type":"Buffer","data":[60,155,196,28,245,104,6,22,23,9,165,148,133,81,2,5,221,157,109,216]},"announce":[],"urlList":[]}}